# xmcd
#
# Track frame offsets:
#	150
#	32530
#	42880
#	62151
#	83847
#	110261
#	134486
#	151804
#	159126
#
# Disc length: 2392 seconds
#
# Revision: 2
# Processed by: cddbd v1.5.1PL2 Copyright (c) Steve Scherf et al.
# Submitted via: EasyCDDAExtractor 8.0.2.1
#
DISCID=63095609
DTITLE=Alice Cooper - Roseland Ballroom New York City 31-10-01 Disc 2
DYEAR=2001
DGENRE=Hard Rock
TTITLE0=Be My Lover - Lost In America
TTITLE1=Every Woman Has A Name
TTITLE2=Only Women Bleed
TTITLE3=Poison
TTITLE4=Band Introduction - Under My Wheels
TTITLE5=School's Out
TTITLE6=Elected
TTITLE7=Fire
TTITLE8=Department Of Youth
EXTD=
EXTT0=
EXTT1=
EXTT2=
EXTT3=
EXTT4=
EXTT5=
EXTT6=
EXTT7=
EXTT8=
PLAYORDER=
